<svg width="722.367" height="74.902" viewBox="0 0 722.367 74.902" xmlns="http://www.w3.org/2000/svg"><g id="svgGroup" stroke-linecap="round" fill-rule="evenodd" font-size="9pt" stroke="#ffffff" stroke-width="0.25mm" fill="#ffffff" style="stroke:#ffffff;stroke-width:0.25mm;fill:#ffffff"><path d="M 454.701 62.6 L 454.701 39.7 Q 454.701 37.9 454.551 36.35 A 4.423 4.423 0 0 0 454.257 35.109 A 3.561 3.561 0 0 0 453.401 33.85 A 2.631 2.631 0 0 0 452.575 33.339 Q 451.759 33.005 450.46 32.925 A 14.072 14.072 0 0 0 449.601 32.9 A 5.641 5.641 0 0 1 448.591 32.813 A 4.654 4.654 0 0 1 447.951 32.65 A 0.895 0.895 0 0 1 447.438 32.192 Q 447.201 31.744 447.201 30.9 A 2.072 2.072 0 0 1 447.324 30.16 Q 447.549 29.567 448.188 29.284 A 2.768 2.768 0 0 1 448.801 29.1 Q 452.592 28.523 454.923 27.946 A 27.017 27.017 0 0 0 455.851 27.7 Q 457.87 27.123 459.074 26.682 A 17.432 17.432 0 0 0 459.551 26.5 A 10.927 10.927 0 0 1 460.525 26.16 Q 461.207 25.959 461.801 25.9 Q 462.291 25.839 462.687 25.965 A 1.621 1.621 0 0 1 463.151 26.2 Q 463.656 26.568 463.697 27.611 A 4.825 4.825 0 0 1 463.701 27.8 L 463.701 34.1 L 464.001 34.1 A 350.602 350.602 0 0 1 467.424 30.89 A 317.401 317.401 0 0 1 467.901 30.45 A 14.99 14.99 0 0 1 470.891 28.327 A 18.421 18.421 0 0 1 472.501 27.55 A 12.851 12.851 0 0 1 474.942 26.805 Q 476.907 26.4 479.401 26.4 A 19.614 19.614 0 0 1 483.42 26.792 A 14.457 14.457 0 0 1 487.801 28.45 Q 491.301 30.5 492.901 34.1 L 493.101 34.1 Q 495.101 32.2 497.301 30.45 A 18.188 18.188 0 0 1 500.533 28.412 A 22.443 22.443 0 0 1 502.501 27.55 A 16.261 16.261 0 0 1 505.577 26.725 Q 507.085 26.466 508.808 26.413 A 29.291 29.291 0 0 1 509.701 26.4 A 18.219 18.219 0 0 1 514.362 26.965 A 13.058 13.058 0 0 1 520.501 30.5 A 13.835 13.835 0 0 1 524.247 38.089 A 19.516 19.516 0 0 1 524.501 41.3 L 524.501 62.6 A 35.447 35.447 0 0 0 524.641 65.8 A 32.65 32.65 0 0 0 524.651 65.9 A 4.425 4.425 0 0 0 524.937 67.134 A 3.503 3.503 0 0 0 525.851 68.45 Q 526.743 69.257 528.897 69.379 A 14.293 14.293 0 0 0 529.701 69.4 A 9.086 9.086 0 0 1 530.391 69.425 Q 530.717 69.45 531.001 69.5 A 4.8 4.8 0 0 1 531.251 69.55 A 0.677 0.677 0 0 1 531.661 69.852 Q 531.938 70.263 532.001 71.2 A 2.486 2.486 0 0 1 531.705 72.366 A 3.037 3.037 0 0 1 531.601 72.55 A 1.351 1.351 0 0 1 531.156 73.006 Q 530.898 73.164 530.56 73.193 A 1.827 1.827 0 0 1 530.401 73.2 Q 527.501 73 525.051 72.95 Q 522.601 72.9 519.901 72.9 Q 517.201 72.9 514.801 72.95 Q 512.401 73 509.501 73.2 A 1.552 1.552 0 0 1 508.977 73.116 Q 508.573 72.972 508.321 72.582 A 1.681 1.681 0 0 1 508.301 72.55 A 2.707 2.707 0 0 1 507.969 71.771 A 2.402 2.402 0 0 1 507.901 71.2 A 5.399 5.399 0 0 1 507.962 70.656 Q 508.13 69.67 508.651 69.55 A 5.38 5.38 0 0 1 509.255 69.449 Q 509.566 69.414 509.918 69.404 A 10.096 10.096 0 0 1 510.201 69.4 Q 512.419 69.4 513.539 68.804 A 2.531 2.531 0 0 0 514.051 68.45 Q 515.101 67.5 515.251 65.9 A 35.26 35.26 0 0 0 515.4 62.706 A 38.449 38.449 0 0 0 515.401 62.6 L 515.401 41.4 Q 515.401 38.583 514.344 36.641 A 7.08 7.08 0 0 0 513.951 36 A 9.009 9.009 0 0 0 511.369 33.479 A 8.662 8.662 0 0 0 510.301 32.9 Q 508.101 31.9 505.801 31.9 A 15.436 15.436 0 0 0 503.11 32.123 Q 501.55 32.399 500.264 33.018 A 9.416 9.416 0 0 0 500.001 33.15 A 15.954 15.954 0 0 0 498.107 34.3 Q 497.142 34.988 496.417 35.761 A 9.394 9.394 0 0 0 496.201 36 Q 495.289 37.041 494.717 37.913 A 8.805 8.805 0 0 0 494.201 38.8 L 494.201 62.6 A 106.316 106.316 0 0 0 494.245 65.7 A 97.125 97.125 0 0 0 494.251 65.9 A 4.527 4.527 0 0 0 494.421 67.03 A 3.266 3.266 0 0 0 495.251 68.45 A 2.431 2.431 0 0 0 496.025 68.951 Q 497.076 69.4 499.001 69.4 A 10.987 10.987 0 0 1 499.587 69.415 Q 500.188 69.447 500.601 69.55 A 0.616 0.616 0 0 1 500.959 69.82 Q 501.236 70.224 501.301 71.2 A 2.486 2.486 0 0 1 501.005 72.366 A 3.037 3.037 0 0 1 500.901 72.55 A 1.351 1.351 0 0 1 500.456 73.006 Q 500.198 73.164 499.86 73.193 A 1.827 1.827 0 0 1 499.701 73.2 A 134.029 134.029 0 0 0 497.114 73.046 Q 495.896 72.985 494.809 72.957 A 79.324 79.324 0 0 0 494.501 72.95 Q 492.201 72.9 489.501 72.9 Q 486.901 72.9 484.651 72.95 A 89.851 89.851 0 0 0 482.557 73.023 Q 481.488 73.071 480.303 73.147 A 153.477 153.477 0 0 0 479.501 73.2 A 1.552 1.552 0 0 1 478.977 73.116 Q 478.573 72.972 478.321 72.582 A 1.681 1.681 0 0 1 478.301 72.55 A 2.707 2.707 0 0 1 477.969 71.771 A 2.402 2.402 0 0 1 477.901 71.2 A 5.947 5.947 0 0 1 477.956 70.685 Q 478.093 69.801 478.482 69.596 A 0.527 0.527 0 0 1 478.601 69.55 A 4.087 4.087 0 0 1 479.015 69.471 Q 479.481 69.405 480.113 69.4 A 12.988 12.988 0 0 1 480.201 69.4 Q 482.264 69.4 483.322 68.884 A 2.308 2.308 0 0 0 483.951 68.45 Q 484.901 67.5 484.951 65.9 A 105.124 105.124 0 0 0 485 62.812 A 115.03 115.03 0 0 0 485.001 62.6 L 485.001 41.4 A 13.107 13.107 0 0 0 484.736 38.674 Q 484.389 37.042 483.585 35.829 A 6.728 6.728 0 0 0 482.001 34.15 A 11.278 11.278 0 0 0 478.467 32.331 A 10.269 10.269 0 0 0 475.501 31.9 Q 472.426 31.9 470.2 32.865 A 9.324 9.324 0 0 0 469.601 33.15 A 15.954 15.954 0 0 0 467.707 34.3 Q 466.742 34.988 466.017 35.761 A 9.394 9.394 0 0 0 465.801 36 Q 464.889 37.041 464.317 37.913 A 8.805 8.805 0 0 0 463.801 38.8 L 463.801 62.6 A 35.447 35.447 0 0 0 463.941 65.8 A 32.65 32.65 0 0 0 463.951 65.9 A 4.425 4.425 0 0 0 464.237 67.134 A 3.503 3.503 0 0 0 465.151 68.45 Q 466.043 69.257 468.197 69.379 A 14.293 14.293 0 0 0 469.001 69.4 A 9.086 9.086 0 0 1 469.691 69.425 Q 470.017 69.45 470.301 69.5 A 4.8 4.8 0 0 1 470.551 69.55 A 0.677 0.677 0 0 1 470.961 69.852 Q 471.238 70.263 471.301 71.2 A 2.486 2.486 0 0 1 471.005 72.366 A 3.037 3.037 0 0 1 470.901 72.55 A 1.351 1.351 0 0 1 470.456 73.006 Q 470.198 73.164 469.86 73.193 A 1.827 1.827 0 0 1 469.701 73.2 Q 466.801 73 464.351 72.95 Q 461.901 72.9 459.201 72.9 Q 456.501 72.9 454.101 72.95 Q 451.701 73 448.801 73.2 A 1.295 1.295 0 0 1 447.797 72.737 A 1.94 1.94 0 0 1 447.651 72.55 A 2.634 2.634 0 0 1 447.32 71.909 A 2.163 2.163 0 0 1 447.201 71.2 A 5.399 5.399 0 0 1 447.262 70.656 Q 447.43 69.67 447.951 69.55 A 5.38 5.38 0 0 1 448.555 69.449 Q 448.866 69.414 449.218 69.404 A 10.096 10.096 0 0 1 449.501 69.4 Q 451.719 69.4 452.839 68.804 A 2.531 2.531 0 0 0 453.351 68.45 Q 454.401 67.5 454.551 65.9 A 35.26 35.26 0 0 0 454.7 62.706 A 38.449 38.449 0 0 0 454.701 62.6 Z M 290.401 61.2 L 290.401 21.5 A 18.789 18.789 0 0 0 290.133 18.29 A 17.241 17.241 0 0 0 290.051 17.85 Q 289.701 16.1 288.401 14.95 Q 287.236 13.92 284.547 13.813 A 16.213 16.213 0 0 0 283.901 13.8 Q 283.115 13.8 282.515 13.677 A 4.281 4.281 0 0 1 282.201 13.6 Q 281.51 13.403 281.403 11.744 A 8.296 8.296 0 0 1 281.401 11.7 Q 281.401 10.9 281.801 10.2 A 1.327 1.327 0 0 1 282.711 9.55 A 2.264 2.264 0 0 1 283.201 9.5 Q 286.401 9.6 289.201 9.7 A 160.565 160.565 0 0 0 294.254 9.798 A 177.771 177.771 0 0 0 295.001 9.8 Q 301.101 9.8 307.501 9.5 A 2.221 2.221 0 0 1 308.029 9.559 A 1.319 1.319 0 0 1 308.901 10.2 Q 309.301 10.9 309.301 11.7 Q 309.212 13.202 308.694 13.533 A 0.586 0.586 0 0 1 308.551 13.6 Q 307.902 13.8 306.806 13.8 A 7.942 7.942 0 0 1 306.801 13.8 Q 303.701 13.8 302.351 14.95 Q 301.001 16.1 300.701 17.85 Q 300.401 19.6 300.301 21.5 L 300.301 39.2 L 331.701 39.2 L 331.701 21.5 A 18.789 18.789 0 0 0 331.433 18.29 A 17.241 17.241 0 0 0 331.351 17.85 Q 331.001 16.1 329.701 14.95 Q 328.536 13.92 325.847 13.813 A 16.213 16.213 0 0 0 325.201 13.8 A 8.473 8.473 0 0 1 324.373 13.762 Q 323.873 13.713 323.451 13.6 A 0.82 0.82 0 0 1 322.974 13.23 Q 322.754 12.893 322.659 12.269 A 6.179 6.179 0 0 1 322.601 11.7 Q 322.601 10.9 323.051 10.2 Q 323.501 9.5 324.401 9.5 A 279.814 279.814 0 0 0 333.869 9.781 A 247.588 247.588 0 0 0 336.901 9.8 Q 339.901 9.8 342.751 9.7 Q 345.601 9.6 348.801 9.5 A 1.825 1.825 0 0 1 349.378 9.587 A 1.441 1.441 0 0 1 350.151 10.2 Q 350.601 10.9 350.601 11.7 A 6.447 6.447 0 0 1 350.536 12.323 Q 350.366 13.401 349.84 13.587 A 0.654 0.654 0 0 1 349.801 13.6 Q 349.227 13.764 348.452 13.794 A 9.213 9.213 0 0 1 348.101 13.8 A 13.235 13.235 0 0 0 346.512 13.889 Q 344.612 14.119 343.601 14.95 Q 342.201 16.1 341.901 17.85 Q 341.601 19.6 341.501 21.5 L 341.501 61.2 Q 341.601 63.1 341.901 64.85 Q 342.201 66.6 343.601 67.75 Q 344.911 68.827 347.712 68.895 A 15.854 15.854 0 0 0 348.101 68.9 Q 348.886 68.9 349.486 69.023 A 4.281 4.281 0 0 1 349.801 69.1 Q 350.491 69.297 350.598 70.956 A 8.296 8.296 0 0 1 350.601 71 Q 350.601 71.8 350.151 72.5 Q 349.701 73.2 348.801 73.2 Q 345.601 73 342.701 72.95 Q 339.801 72.9 336.801 72.9 A 259.106 259.106 0 0 0 327.811 73.062 A 299.761 299.761 0 0 0 324.401 73.2 A 1.825 1.825 0 0 1 323.823 73.114 A 1.441 1.441 0 0 1 323.051 72.5 Q 322.601 71.8 322.601 71 Q 322.666 69.895 323.006 69.423 A 0.799 0.799 0 0 1 323.451 69.1 A 5.575 5.575 0 0 1 324.209 68.956 Q 324.583 68.911 325.004 68.902 A 9.632 9.632 0 0 1 325.201 68.9 Q 328.401 68.9 329.701 67.75 Q 331.001 66.6 331.351 64.85 Q 331.701 63.1 331.701 61.2 L 331.701 43.5 L 300.301 43.5 L 300.301 61.2 Q 300.401 63.1 300.701 64.85 Q 301.001 66.6 302.351 67.75 Q 303.584 68.801 306.278 68.891 A 15.526 15.526 0 0 0 306.801 68.9 Q 307.901 68.9 308.551 69.1 Q 309.16 69.288 309.286 70.794 A 8.391 8.391 0 0 1 309.301 71 A 2.974 2.974 0 0 1 308.901 72.5 A 1.327 1.327 0 0 1 307.99 73.15 A 2.264 2.264 0 0 1 307.501 73.2 A 268.293 268.293 0 0 0 296.607 72.905 A 243.01 243.01 0 0 0 295.101 72.9 Q 292.101 72.9 289.251 72.95 A 126.594 126.594 0 0 0 285.551 73.071 A 150.871 150.871 0 0 0 283.201 73.2 A 2.221 2.221 0 0 1 282.673 73.142 A 1.319 1.319 0 0 1 281.801 72.5 A 3.252 3.252 0 0 1 281.794 72.489 A 2.973 2.973 0 0 1 281.401 71 A 6.447 6.447 0 0 1 281.465 70.377 Q 281.635 69.3 282.161 69.113 A 0.654 0.654 0 0 1 282.201 69.1 Q 282.774 68.936 283.549 68.907 A 9.213 9.213 0 0 1 283.901 68.9 Q 287.101 68.9 288.401 67.75 Q 289.701 66.6 290.051 64.85 Q 290.401 63.1 290.401 61.2 Z M 68.301 62.6 L 68.301 13.8 Q 68.301 12 68.151 10.45 A 4.423 4.423 0 0 0 67.857 9.209 A 3.561 3.561 0 0 0 67.001 7.95 A 2.631 2.631 0 0 0 66.175 7.439 Q 65.359 7.105 64.06 7.025 A 14.072 14.072 0 0 0 63.201 7 A 5.641 5.641 0 0 1 62.191 6.913 A 4.654 4.654 0 0 1 61.551 6.75 A 0.895 0.895 0 0 1 61.038 6.292 Q 60.801 5.844 60.801 5 A 2.072 2.072 0 0 1 60.924 4.26 Q 61.149 3.667 61.788 3.384 A 2.768 2.768 0 0 1 62.401 3.2 Q 66.192 2.623 68.523 2.046 A 27.017 27.017 0 0 0 69.451 1.8 Q 71.901 1.1 73.201 0.55 Q 74.191 0.131 75.006 0.031 A 4.067 4.067 0 0 1 75.501 0 A 3.05 3.05 0 0 1 76.109 0.058 A 2.175 2.175 0 0 1 76.851 0.35 Q 77.342 0.663 77.394 1.654 A 4.67 4.67 0 0 1 77.401 1.9 L 77.401 34.1 L 77.601 34.1 Q 79.601 32.2 81.701 30.45 A 17.519 17.519 0 0 1 85.066 28.265 A 21.158 21.158 0 0 1 86.651 27.55 A 14.513 14.513 0 0 1 89.403 26.764 Q 90.733 26.514 92.266 26.436 A 28.176 28.176 0 0 1 93.701 26.4 A 18.219 18.219 0 0 1 98.362 26.965 A 13.058 13.058 0 0 1 104.501 30.5 A 13.835 13.835 0 0 1 108.247 38.089 A 19.516 19.516 0 0 1 108.501 41.3 L 108.501 62.6 A 35.447 35.447 0 0 0 108.641 65.8 A 32.65 32.65 0 0 0 108.651 65.9 A 4.425 4.425 0 0 0 108.937 67.134 A 3.503 3.503 0 0 0 109.851 68.45 A 2.89 2.89 0 0 0 110.742 68.981 Q 111.59 69.315 112.899 69.383 A 13.527 13.527 0 0 0 113.601 69.4 A 10.987 10.987 0 0 1 114.187 69.415 Q 114.788 69.447 115.201 69.55 A 0.616 0.616 0 0 1 115.559 69.82 Q 115.836 70.224 115.901 71.2 A 2.806 2.806 0 0 1 115.561 72.53 A 3.27 3.27 0 0 1 115.551 72.55 Q 115.201 73.2 114.401 73.2 Q 111.501 73 109.001 72.95 Q 106.501 72.9 103.901 72.9 Q 101.201 72.9 98.801 72.95 Q 96.401 73 93.501 73.2 A 1.552 1.552 0 0 1 92.977 73.116 Q 92.573 72.972 92.321 72.582 A 1.681 1.681 0 0 1 92.301 72.55 A 2.707 2.707 0 0 1 91.969 71.771 A 2.402 2.402 0 0 1 91.901 71.2 A 5.947 5.947 0 0 1 91.956 70.685 Q 92.093 69.801 92.482 69.596 A 0.527 0.527 0 0 1 92.601 69.55 A 4.087 4.087 0 0 1 93.015 69.471 Q 93.481 69.405 94.113 69.4 A 12.988 12.988 0 0 1 94.201 69.4 Q 96.419 69.4 97.539 68.804 A 2.531 2.531 0 0 0 98.051 68.45 A 3.437 3.437 0 0 0 99.13 66.477 A 4.708 4.708 0 0 0 99.201 65.9 A 52.632 52.632 0 0 0 99.3 62.812 A 57.456 57.456 0 0 0 99.301 62.6 L 99.301 41.4 A 13.107 13.107 0 0 0 99.036 38.674 Q 98.689 37.042 97.885 35.829 A 6.728 6.728 0 0 0 96.301 34.15 A 11.278 11.278 0 0 0 92.767 32.331 A 10.269 10.269 0 0 0 89.801 31.9 A 15.709 15.709 0 0 0 86.648 32.203 A 12.176 12.176 0 0 0 83.801 33.15 A 18.757 18.757 0 0 0 81.717 34.311 Q 80.672 34.989 79.86 35.749 A 10.993 10.993 0 0 0 79.601 36 Q 78.097 37.503 77.477 38.654 A 5.312 5.312 0 0 0 77.401 38.8 L 77.401 62.6 A 35.447 35.447 0 0 0 77.541 65.8 A 32.65 32.65 0 0 0 77.551 65.9 A 4.425 4.425 0 0 0 77.837 67.134 A 3.503 3.503 0 0 0 78.751 68.45 A 2.89 2.89 0 0 0 79.642 68.981 Q 80.49 69.315 81.799 69.383 A 13.527 13.527 0 0 0 82.501 69.4 A 10.987 10.987 0 0 1 83.087 69.415 Q 83.688 69.447 84.101 69.55 A 0.616 0.616 0 0 1 84.459 69.82 Q 84.736 70.224 84.801 71.2 A 2.806 2.806 0 0 1 84.461 72.53 A 3.27 3.27 0 0 1 84.451 72.55 Q 84.101 73.2 83.301 73.2 Q 80.401 73 77.901 72.95 Q 75.401 72.9 72.801 72.9 Q 70.101 72.9 67.701 72.95 Q 65.301 73 62.401 73.2 A 1.552 1.552 0 0 1 61.877 73.116 Q 61.473 72.972 61.221 72.582 A 1.681 1.681 0 0 1 61.201 72.55 A 2.707 2.707 0 0 1 60.869 71.771 A 2.402 2.402 0 0 1 60.801 71.2 A 5.399 5.399 0 0 1 60.862 70.656 Q 61.03 69.67 61.551 69.55 A 5.38 5.38 0 0 1 62.155 69.449 Q 62.466 69.414 62.818 69.404 A 10.096 10.096 0 0 1 63.101 69.4 Q 65.319 69.4 66.439 68.804 A 2.531 2.531 0 0 0 66.951 68.45 Q 68.001 67.5 68.151 65.9 A 35.26 35.26 0 0 0 68.3 62.706 A 38.449 38.449 0 0 0 68.301 62.6 Z M 30.901 74.9 Q 22.501 74.9 15.501 70.9 A 29.939 29.939 0 0 1 4.519 59.959 A 35.409 35.409 0 0 1 4.251 59.5 A 31.297 31.297 0 0 1 0.649 49.404 A 42.652 42.652 0 0 1 0.001 41.8 A 44.11 44.11 0 0 1 0.88 32.798 A 33.906 33.906 0 0 1 4.001 23.95 Q 8.001 16.3 15.351 12.05 A 31.253 31.253 0 0 1 26.139 8.302 A 41.325 41.325 0 0 1 32.701 7.8 A 40.651 40.651 0 0 1 38.712 8.262 A 46.314 46.314 0 0 1 40.151 8.5 A 26.7 26.7 0 0 1 46.677 10.549 A 24.92 24.92 0 0 1 47.301 10.85 A 15.748 15.748 0 0 1 51.084 13.459 A 14.094 14.094 0 0 1 52.651 15.2 A 9.915 9.915 0 0 1 54.5 19.527 A 13.512 13.512 0 0 1 54.701 21.9 A 13.152 13.152 0 0 1 54.704 22.206 A 11.004 11.004 0 0 1 52.101 29.45 A 8.798 8.798 0 0 1 46.47 32.555 A 12.89 12.89 0 0 1 44.501 32.7 A 9.748 9.748 0 0 1 42.991 32.592 Q 42.218 32.47 41.61 32.212 A 3.625 3.625 0 0 1 40.251 31.25 A 10.829 10.829 0 0 1 39.8 30.693 Q 39.021 29.658 39.101 29.1 A 0.287 0.287 0 0 1 39.163 28.944 Q 39.363 28.656 40.214 28.133 A 15.301 15.301 0 0 1 40.351 28.05 A 7.527 7.527 0 0 0 41.444 27.241 Q 41.928 26.815 42.411 26.27 A 14.534 14.534 0 0 0 42.851 25.75 A 5.352 5.352 0 0 0 43.844 23.741 Q 44.053 22.959 44.092 22.034 A 10.276 10.276 0 0 0 44.101 21.6 A 10.89 10.89 0 0 0 43.652 18.396 A 8.496 8.496 0 0 0 41.101 14.45 Q 38.562 12.208 34.233 11.863 A 20.566 20.566 0 0 0 32.601 11.8 Q 26.601 11.8 21.851 15.2 A 19.878 19.878 0 0 0 16.823 20.514 A 27.418 27.418 0 0 0 14.401 25.15 A 33.139 33.139 0 0 0 12.508 31.692 Q 11.701 36.005 11.701 41.2 A 38.874 38.874 0 0 0 12.705 50.189 A 32.962 32.962 0 0 0 14.551 55.75 A 27.331 27.331 0 0 0 18.468 62.245 A 23.421 23.421 0 0 0 22.551 66.15 A 19.332 19.332 0 0 0 34.077 69.996 A 23.753 23.753 0 0 0 34.501 70 A 21.681 21.681 0 0 0 38.929 69.569 A 15.922 15.922 0 0 0 43.751 67.75 A 16.83 16.83 0 0 0 47.304 64.925 Q 49.102 63.078 50.701 60.5 A 2.097 2.097 0 0 1 51.065 59.994 Q 52.01 59.049 53.901 60.2 Q 54.801 60.8 55.301 61.65 A 1.55 1.55 0 0 1 55.463 62.029 Q 55.632 62.648 55.18 63.293 A 2.67 2.67 0 0 1 55.101 63.4 Q 52.366 66.855 49.838 69.092 A 24.883 24.883 0 0 1 47.901 70.65 Q 44.501 73.1 40.501 74 A 33.68 33.68 0 0 1 36.841 74.599 Q 34.983 74.806 32.872 74.871 A 64.445 64.445 0 0 1 30.901 74.9 Z M 598.001 62.6 L 598.001 39.7 Q 598.001 37.9 597.851 36.35 A 4.423 4.423 0 0 0 597.557 35.109 A 3.561 3.561 0 0 0 596.701 33.85 A 2.631 2.631 0 0 0 595.875 33.339 Q 595.059 33.005 593.76 32.925 A 14.072 14.072 0 0 0 592.901 32.9 A 5.641 5.641 0 0 1 591.891 32.813 A 4.654 4.654 0 0 1 591.251 32.65 A 0.895 0.895 0 0 1 590.738 32.192 Q 590.501 31.744 590.501 30.9 A 2.072 2.072 0 0 1 590.624 30.16 Q 590.849 29.567 591.488 29.284 A 2.768 2.768 0 0 1 592.101 29.1 Q 595.892 28.523 598.223 27.946 A 27.017 27.017 0 0 0 599.151 27.7 Q 601.17 27.123 602.374 26.682 A 17.432 17.432 0 0 0 602.851 26.5 A 10.927 10.927 0 0 1 603.825 26.16 Q 604.507 25.959 605.101 25.9 Q 605.591 25.839 605.987 25.965 A 1.621 1.621 0 0 1 606.451 26.2 Q 606.956 26.568 606.997 27.611 A 4.825 4.825 0 0 1 607.001 27.8 L 607.001 34.1 L 607.301 34.1 Q 609.301 32.2 611.401 30.45 A 17.519 17.519 0 0 1 614.766 28.265 A 21.158 21.158 0 0 1 616.351 27.55 A 14.513 14.513 0 0 1 619.103 26.764 Q 620.433 26.514 621.966 26.436 A 28.176 28.176 0 0 1 623.401 26.4 A 18.219 18.219 0 0 1 628.062 26.965 A 13.058 13.058 0 0 1 634.201 30.5 A 13.835 13.835 0 0 1 637.947 38.089 A 19.516 19.516 0 0 1 638.201 41.3 L 638.201 62.6 A 35.447 35.447 0 0 0 638.341 65.8 A 32.65 32.65 0 0 0 638.351 65.9 A 4.425 4.425 0 0 0 638.637 67.134 A 3.503 3.503 0 0 0 639.551 68.45 Q 640.443 69.257 642.597 69.379 A 14.293 14.293 0 0 0 643.401 69.4 A 9.086 9.086 0 0 1 644.091 69.425 Q 644.417 69.45 644.701 69.5 A 4.8 4.8 0 0 1 644.951 69.55 A 0.677 0.677 0 0 1 645.361 69.852 Q 645.638 70.263 645.701 71.2 A 2.486 2.486 0 0 1 645.405 72.366 A 3.037 3.037 0 0 1 645.301 72.55 A 1.351 1.351 0 0 1 644.856 73.006 Q 644.598 73.164 644.26 73.193 A 1.827 1.827 0 0 1 644.101 73.2 Q 641.201 73 638.751 72.95 Q 636.301 72.9 633.601 72.9 Q 630.901 72.9 628.501 72.95 Q 626.101 73 623.201 73.2 A 1.295 1.295 0 0 1 622.197 72.737 A 1.94 1.94 0 0 1 622.051 72.55 A 2.634 2.634 0 0 1 621.72 71.909 A 2.163 2.163 0 0 1 621.601 71.2 A 5.399 5.399 0 0 1 621.662 70.656 Q 621.83 69.67 622.351 69.55 A 5.38 5.38 0 0 1 622.955 69.449 Q 623.266 69.414 623.618 69.404 A 10.096 10.096 0 0 1 623.901 69.4 Q 626.119 69.4 627.239 68.804 A 2.531 2.531 0 0 0 627.751 68.45 Q 628.801 67.5 628.951 65.9 A 35.26 35.26 0 0 0 629.1 62.706 A 38.449 38.449 0 0 0 629.101 62.6 L 629.101 41.4 Q 629.101 38.583 628.044 36.641 A 7.08 7.08 0 0 0 627.651 36 A 9.009 9.009 0 0 0 625.069 33.479 A 8.662 8.662 0 0 0 624.001 32.9 Q 621.801 31.9 619.501 31.9 A 15.709 15.709 0 0 0 616.348 32.203 A 12.176 12.176 0 0 0 613.501 33.15 A 18.757 18.757 0 0 0 611.417 34.311 Q 610.372 34.989 609.56 35.749 A 10.993 10.993 0 0 0 609.301 36 Q 607.797 37.503 607.177 38.654 A 5.312 5.312 0 0 0 607.101 38.8 L 607.101 62.6 A 35.447 35.447 0 0 0 607.241 65.8 A 32.65 32.65 0 0 0 607.251 65.9 A 4.425 4.425 0 0 0 607.537 67.134 A 3.503 3.503 0 0 0 608.451 68.45 Q 609.343 69.257 611.497 69.379 A 14.293 14.293 0 0 0 612.301 69.4 A 9.086 9.086 0 0 1 612.991 69.425 Q 613.317 69.45 613.601 69.5 A 4.8 4.8 0 0 1 613.851 69.55 A 0.677 0.677 0 0 1 614.261 69.852 Q 614.538 70.263 614.601 71.2 A 2.486 2.486 0 0 1 614.305 72.366 A 3.037 3.037 0 0 1 614.201 72.55 A 1.351 1.351 0 0 1 613.756 73.006 Q 613.498 73.164 613.16 73.193 A 1.827 1.827 0 0 1 613.001 73.2 Q 610.101 73 607.651 72.95 Q 605.201 72.9 602.501 72.9 Q 599.801 72.9 597.401 72.95 Q 595.001 73 592.101 73.2 A 1.295 1.295 0 0 1 591.097 72.737 A 1.94 1.94 0 0 1 590.951 72.55 A 2.634 2.634 0 0 1 590.62 71.909 A 2.163 2.163 0 0 1 590.501 71.2 A 6.216 6.216 0 0 1 590.59 70.685 Q 590.783 69.811 591.172 69.6 A 0.55 0.55 0 0 1 591.301 69.55 A 4.087 4.087 0 0 1 591.715 69.471 Q 592.181 69.405 592.813 69.4 A 12.988 12.988 0 0 1 592.901 69.4 A 12.915 12.915 0 0 0 594.17 69.343 Q 595.947 69.166 596.701 68.45 A 3.625 3.625 0 0 0 597.711 66.704 A 4.982 4.982 0 0 0 597.851 65.9 A 35.26 35.26 0 0 0 598 62.706 A 38.449 38.449 0 0 0 598.001 62.6 Z M 150.001 47.2 L 150.001 39.3 A 15.165 15.165 0 0 0 149.735 36.374 Q 149.395 34.646 148.62 33.299 A 8.174 8.174 0 0 0 147.651 31.95 Q 145.301 29.3 139.701 29.3 A 8.549 8.549 0 0 0 134.991 30.728 A 10.702 10.702 0 0 0 134.451 31.1 A 5.844 5.844 0 0 0 132.049 35.375 A 8.57 8.57 0 0 0 132.001 36.3 A 5.306 5.306 0 0 0 132.151 37.594 A 4.034 4.034 0 0 0 132.801 39 Q 133.429 39.864 134.057 40.419 A 5.514 5.514 0 0 0 134.401 40.7 Q 135.201 41.3 135.201 41.5 Q 135.201 41.9 134.051 42.95 A 3.838 3.838 0 0 1 132.411 43.82 Q 131.729 44 130.901 44 A 6.668 6.668 0 0 1 128.773 43.677 A 5.402 5.402 0 0 1 126.101 41.7 Q 124.401 39.4 124.401 36.6 A 9.905 9.905 0 0 1 124.717 34.025 A 7.123 7.123 0 0 1 126.751 30.6 A 12.705 12.705 0 0 1 130.215 28.319 A 16.928 16.928 0 0 1 132.801 27.4 Q 136.501 26.4 140.301 26.4 Q 144.801 26.4 149.051 27.5 A 14.189 14.189 0 0 1 153.983 29.805 A 13.416 13.416 0 0 1 156.051 31.7 Q 158.148 34.064 158.646 38.232 A 23.379 23.379 0 0 1 158.801 41 L 158.801 64.3 A 9.851 9.851 0 0 0 158.918 65.106 Q 158.997 65.533 159.117 66.015 A 20.961 20.961 0 0 0 159.301 66.7 A 5.174 5.174 0 0 0 160.701 69.009 A 6.221 6.221 0 0 0 160.851 69.15 A 3.838 3.838 0 0 0 162.49 70.02 Q 163.173 70.2 164.001 70.2 A 3.201 3.201 0 0 1 164.409 70.224 Q 164.624 70.252 164.801 70.311 A 1.397 1.397 0 0 1 165.101 70.45 A 0.618 0.618 0 0 1 165.316 70.697 Q 165.501 71.052 165.501 71.8 A 1.382 1.382 0 0 1 164.95 72.916 A 2.439 2.439 0 0 1 164.501 73.2 A 7.023 7.023 0 0 1 163.207 73.688 A 9.028 9.028 0 0 1 162.201 73.9 Q 160.901 74.1 160.001 74.1 Q 156.301 74.1 153.401 71.95 A 8.394 8.394 0 0 1 150.043 66.294 A 11.099 11.099 0 0 1 150.001 66 Q 147.801 70 143.451 72.05 Q 139.101 74.1 134.201 74.1 A 17.219 17.219 0 0 1 129.99 73.613 A 12.122 12.122 0 0 1 124.451 70.6 Q 120.801 67.1 120.801 62.2 A 15.82 15.82 0 0 1 121.114 58.954 Q 121.712 56.103 123.451 54.2 A 14.674 14.674 0 0 1 127.838 50.951 A 19.089 19.089 0 0 1 130.451 49.9 A 42.543 42.543 0 0 1 136.657 48.425 A 51.48 51.48 0 0 1 139.951 48 Q 145.101 47.5 150.001 47.2 Z M 237.301 47.2 L 237.301 39.3 A 15.165 15.165 0 0 0 237.035 36.374 Q 236.695 34.646 235.92 33.299 A 8.174 8.174 0 0 0 234.951 31.95 Q 232.601 29.3 227.001 29.3 A 8.549 8.549 0 0 0 222.291 30.728 A 10.702 10.702 0 0 0 221.751 31.1 A 5.844 5.844 0 0 0 219.349 35.375 A 8.57 8.57 0 0 0 219.301 36.3 A 5.306 5.306 0 0 0 219.451 37.594 A 4.034 4.034 0 0 0 220.101 39 Q 220.729 39.864 221.357 40.419 A 5.514 5.514 0 0 0 221.701 40.7 Q 222.501 41.3 222.501 41.5 Q 222.501 41.9 221.351 42.95 A 3.838 3.838 0 0 1 219.711 43.82 Q 219.029 44 218.201 44 A 6.668 6.668 0 0 1 216.073 43.677 A 5.402 5.402 0 0 1 213.401 41.7 Q 211.701 39.4 211.701 36.6 A 9.905 9.905 0 0 1 212.017 34.025 A 7.123 7.123 0 0 1 214.051 30.6 A 12.705 12.705 0 0 1 217.515 28.319 A 16.928 16.928 0 0 1 220.101 27.4 Q 223.801 26.4 227.601 26.4 Q 232.101 26.4 236.351 27.5 A 14.189 14.189 0 0 1 241.283 29.805 A 13.416 13.416 0 0 1 243.351 31.7 Q 245.448 34.064 245.946 38.232 A 23.379 23.379 0 0 1 246.101 41 L 246.101 64.3 A 9.851 9.851 0 0 0 246.218 65.106 Q 246.297 65.533 246.417 66.015 A 20.961 20.961 0 0 0 246.601 66.7 A 5.174 5.174 0 0 0 248.001 69.009 A 6.221 6.221 0 0 0 248.151 69.15 A 3.838 3.838 0 0 0 249.79 70.02 Q 250.473 70.2 251.301 70.2 A 3.201 3.201 0 0 1 251.709 70.224 Q 251.924 70.252 252.101 70.311 A 1.397 1.397 0 0 1 252.401 70.45 A 0.618 0.618 0 0 1 252.616 70.697 Q 252.801 71.052 252.801 71.8 A 1.382 1.382 0 0 1 252.25 72.916 A 2.439 2.439 0 0 1 251.801 73.2 A 7.023 7.023 0 0 1 250.507 73.688 A 9.028 9.028 0 0 1 249.501 73.9 Q 248.201 74.1 247.301 74.1 Q 243.601 74.1 240.701 71.95 A 8.394 8.394 0 0 1 237.343 66.294 A 11.099 11.099 0 0 1 237.301 66 Q 235.101 70 230.751 72.05 Q 226.401 74.1 221.501 74.1 A 17.219 17.219 0 0 1 217.29 73.613 A 12.122 12.122 0 0 1 211.751 70.6 Q 208.101 67.1 208.101 62.2 A 15.82 15.82 0 0 1 208.414 58.954 Q 209.012 56.103 210.751 54.2 A 14.674 14.674 0 0 1 215.138 50.951 A 19.089 19.089 0 0 1 217.751 49.9 A 42.543 42.543 0 0 1 223.957 48.425 A 51.48 51.48 0 0 1 227.251 48 Q 232.401 47.5 237.301 47.2 Z M 384.301 47.2 L 384.301 39.3 A 15.165 15.165 0 0 0 384.035 36.374 Q 383.695 34.646 382.92 33.299 A 8.174 8.174 0 0 0 381.951 31.95 Q 379.601 29.3 374.001 29.3 A 8.549 8.549 0 0 0 369.291 30.728 A 10.702 10.702 0 0 0 368.751 31.1 A 5.844 5.844 0 0 0 366.349 35.375 A 8.57 8.57 0 0 0 366.301 36.3 A 5.306 5.306 0 0 0 366.451 37.594 A 4.034 4.034 0 0 0 367.101 39 Q 367.729 39.864 368.357 40.419 A 5.514 5.514 0 0 0 368.701 40.7 Q 369.501 41.3 369.501 41.5 Q 369.501 41.9 368.351 42.95 A 3.838 3.838 0 0 1 366.711 43.82 Q 366.029 44 365.201 44 A 6.668 6.668 0 0 1 363.073 43.677 A 5.402 5.402 0 0 1 360.401 41.7 Q 358.701 39.4 358.701 36.6 A 9.905 9.905 0 0 1 359.017 34.025 A 7.123 7.123 0 0 1 361.051 30.6 A 12.705 12.705 0 0 1 364.515 28.319 A 16.928 16.928 0 0 1 367.101 27.4 Q 370.801 26.4 374.601 26.4 Q 379.101 26.4 383.351 27.5 A 14.189 14.189 0 0 1 388.283 29.805 A 13.416 13.416 0 0 1 390.351 31.7 Q 392.448 34.064 392.946 38.232 A 23.379 23.379 0 0 1 393.101 41 L 393.101 64.3 A 9.851 9.851 0 0 0 393.218 65.106 Q 393.297 65.533 393.417 66.015 A 20.961 20.961 0 0 0 393.601 66.7 A 5.174 5.174 0 0 0 395.001 69.009 A 6.221 6.221 0 0 0 395.151 69.15 A 3.838 3.838 0 0 0 396.79 70.02 Q 397.473 70.2 398.301 70.2 A 3.201 3.201 0 0 1 398.709 70.224 Q 398.924 70.252 399.101 70.311 A 1.397 1.397 0 0 1 399.401 70.45 A 0.618 0.618 0 0 1 399.616 70.697 Q 399.801 71.052 399.801 71.8 A 1.382 1.382 0 0 1 399.25 72.916 A 2.439 2.439 0 0 1 398.801 73.2 A 7.023 7.023 0 0 1 397.507 73.688 A 9.028 9.028 0 0 1 396.501 73.9 Q 395.201 74.1 394.301 74.1 Q 390.601 74.1 387.701 71.95 A 8.394 8.394 0 0 1 384.343 66.294 A 11.099 11.099 0 0 1 384.301 66 Q 382.101 70 377.751 72.05 Q 373.401 74.1 368.501 74.1 A 17.219 17.219 0 0 1 364.29 73.613 A 12.122 12.122 0 0 1 358.751 70.6 Q 355.101 67.1 355.101 62.2 A 15.82 15.82 0 0 1 355.414 58.954 Q 356.012 56.103 357.751 54.2 A 14.674 14.674 0 0 1 362.138 50.951 A 19.089 19.089 0 0 1 364.751 49.9 A 42.543 42.543 0 0 1 370.957 48.425 A 51.48 51.48 0 0 1 374.251 48 Q 379.401 47.5 384.301 47.2 Z M 714.601 48.9 L 690.301 48.9 A 35.947 35.947 0 0 0 690.698 54.367 A 27.135 27.135 0 0 0 691.901 59.25 A 16.565 16.565 0 0 0 694.123 63.548 A 14.165 14.165 0 0 0 696.951 66.45 A 12.136 12.136 0 0 0 701.324 68.537 Q 703.066 68.993 705.122 69.08 A 23.29 23.29 0 0 0 706.101 69.1 A 16.426 16.426 0 0 0 709.546 68.756 A 12.213 12.213 0 0 0 713.301 67.3 Q 716.301 65.5 719.101 61 A 1.567 1.567 0 0 1 719.44 60.679 Q 720.177 60.178 721.301 60.9 A 1.932 1.932 0 0 1 721.915 61.369 A 1.822 1.822 0 0 1 722.301 62.15 A 2.569 2.569 0 0 1 722.355 62.46 Q 722.406 62.935 722.248 63.322 A 1.565 1.565 0 0 1 722.101 63.6 A 23.652 23.652 0 0 1 716.144 70.076 A 22.537 22.537 0 0 1 714.301 71.3 A 19.898 19.898 0 0 1 706.102 73.966 A 24.739 24.739 0 0 1 703.501 74.1 A 29.836 29.836 0 0 1 697.649 73.555 Q 693.668 72.759 690.551 70.8 Q 685.301 67.5 682.701 62 A 27.461 27.461 0 0 1 680.117 51.01 A 31.931 31.931 0 0 1 680.101 50 Q 680.101 45.6 681.651 41.45 Q 683.201 37.3 686.101 33.85 Q 689.001 30.4 693.101 28.4 A 19.749 19.749 0 0 1 699.486 26.567 A 24.773 24.773 0 0 1 702.401 26.4 A 28.352 28.352 0 0 1 707.699 26.862 Q 710.668 27.428 712.974 28.685 A 13.785 13.785 0 0 1 716.251 31.15 Q 720.901 35.9 721.601 43.2 Q 721.601 45.058 721.051 46.24 A 3.352 3.352 0 0 1 719.651 47.8 A 7.823 7.823 0 0 1 717.647 48.571 Q 716.296 48.9 714.601 48.9 Z M 412.101 62.6 L 412.101 39.7 Q 412.101 37.9 411.951 36.35 A 4.423 4.423 0 0 0 411.657 35.109 A 3.561 3.561 0 0 0 410.801 33.85 A 2.631 2.631 0 0 0 409.975 33.339 Q 409.159 33.005 407.86 32.925 A 14.072 14.072 0 0 0 407.001 32.9 A 5.641 5.641 0 0 1 405.991 32.813 A 4.654 4.654 0 0 1 405.351 32.65 A 0.895 0.895 0 0 1 404.838 32.192 Q 404.601 31.744 404.601 30.9 A 2.072 2.072 0 0 1 404.724 30.16 Q 404.949 29.567 405.588 29.284 A 2.768 2.768 0 0 1 406.201 29.1 Q 409.992 28.523 412.323 27.946 A 27.017 27.017 0 0 0 413.251 27.7 Q 415.27 27.123 416.474 26.682 A 17.432 17.432 0 0 0 416.951 26.5 A 10.927 10.927 0 0 1 417.925 26.16 Q 418.607 25.959 419.201 25.9 Q 419.691 25.839 420.087 25.965 A 1.621 1.621 0 0 1 420.551 26.2 Q 421.056 26.568 421.097 27.611 A 4.825 4.825 0 0 1 421.101 27.8 L 421.101 34 L 421.401 34 A 41.058 41.058 0 0 1 425.729 30.324 A 34.241 34.241 0 0 1 428.401 28.55 A 18.74 18.74 0 0 1 430.805 27.326 Q 433.032 26.4 435.001 26.4 Q 438.501 26.4 440.351 29 A 10.187 10.187 0 0 1 441.78 31.804 A 8.798 8.798 0 0 1 442.201 34.5 A 8.087 8.087 0 0 1 441.282 38.203 A 10.455 10.455 0 0 1 440.601 39.35 A 5.196 5.196 0 0 1 436.785 41.64 A 7.758 7.758 0 0 1 435.801 41.7 Q 434.627 41.7 433.803 41.35 A 3.165 3.165 0 0 1 433.251 41.05 Q 432.479 40.522 432.268 40.225 A 0.491 0.491 0 0 1 432.201 40.1 A 0.26 0.26 0 0 1 432.237 39.991 Q 432.36 39.755 432.901 39.167 A 22.689 22.689 0 0 1 433.151 38.9 A 3.425 3.425 0 0 0 434.092 36.683 A 4.521 4.521 0 0 0 434.101 36.4 A 5.546 5.546 0 0 0 433.968 35.154 A 3.784 3.784 0 0 0 433.151 33.5 A 3.121 3.121 0 0 0 430.949 32.414 A 4.357 4.357 0 0 0 430.601 32.4 A 4.566 4.566 0 0 0 429.398 32.579 Q 428.041 32.951 426.251 34.1 A 29.714 29.714 0 0 0 421.957 37.467 A 33.564 33.564 0 0 0 421.201 38.2 L 421.201 62.6 A 35.447 35.447 0 0 0 421.341 65.8 A 32.65 32.65 0 0 0 421.351 65.9 A 4.425 4.425 0 0 0 421.637 67.134 A 3.503 3.503 0 0 0 422.551 68.45 Q 423.443 69.257 425.597 69.379 A 14.293 14.293 0 0 0 426.401 69.4 A 9.086 9.086 0 0 1 427.091 69.425 Q 427.417 69.45 427.701 69.5 A 4.8 4.8 0 0 1 427.951 69.55 A 0.677 0.677 0 0 1 428.361 69.852 Q 428.638 70.263 428.701 71.2 A 2.486 2.486 0 0 1 428.405 72.366 A 3.037 3.037 0 0 1 428.301 72.55 A 1.351 1.351 0 0 1 427.856 73.006 Q 427.598 73.164 427.26 73.193 A 1.827 1.827 0 0 1 427.101 73.2 Q 424.201 73 421.751 72.95 Q 419.301 72.9 416.601 72.9 Q 413.901 72.9 411.501 72.95 Q 409.101 73 406.201 73.2 A 1.295 1.295 0 0 1 405.197 72.737 A 1.94 1.94 0 0 1 405.051 72.55 A 2.634 2.634 0 0 1 404.72 71.909 A 2.163 2.163 0 0 1 404.601 71.2 A 6.216 6.216 0 0 1 404.69 70.685 Q 404.883 69.811 405.272 69.6 A 0.55 0.55 0 0 1 405.401 69.55 A 4.087 4.087 0 0 1 405.815 69.471 Q 406.281 69.405 406.913 69.4 A 12.988 12.988 0 0 1 407.001 69.4 A 12.915 12.915 0 0 0 408.27 69.343 Q 410.047 69.166 410.801 68.45 A 3.625 3.625 0 0 0 411.811 66.704 A 4.982 4.982 0 0 0 411.951 65.9 A 35.26 35.26 0 0 0 412.1 62.706 A 38.449 38.449 0 0 0 412.101 62.6 Z M 176.501 60.7 L 176.501 31.3 L 170.701 31.5 A 1.406 1.406 0 0 1 170.252 31.432 A 1.123 1.123 0 0 1 169.651 30.95 A 2.249 2.249 0 0 1 169.304 29.83 A 2.719 2.719 0 0 1 169.301 29.7 Q 169.301 27.7 170.701 27.4 A 18.118 18.118 0 0 0 172.935 26.838 Q 174.044 26.478 174.924 25.996 A 7.806 7.806 0 0 0 176.301 25.05 Q 178.201 23.4 179.251 21.1 Q 180.301 18.8 181.201 16.1 A 2.461 2.461 0 0 1 181.424 15.644 Q 181.693 15.22 182.101 15.05 A 3.294 3.294 0 0 1 183.227 14.804 A 3.82 3.82 0 0 1 183.401 14.8 A 2.865 2.865 0 0 1 183.954 14.857 Q 184.329 14.931 184.751 15.1 A 1.343 1.343 0 0 1 185.146 15.336 Q 185.444 15.6 185.492 16.03 A 1.544 1.544 0 0 1 185.501 16.2 L 184.801 27.6 L 196.501 26.9 A 2.358 2.358 0 0 1 196.657 26.888 Q 197.427 26.854 197.701 27.4 A 2.794 2.794 0 0 1 197.957 28.217 A 3.718 3.718 0 0 1 198.001 28.8 Q 198.001 29.8 197.651 30.8 Q 197.301 31.8 196.801 31.8 L 185.601 31.5 L 185.601 61.9 A 11.67 11.67 0 0 0 186.219 65.731 A 10.796 10.796 0 0 0 186.851 67.2 Q 188.101 69.6 191.401 69.6 A 14.42 14.42 0 0 0 192.421 69.562 Q 192.94 69.525 193.513 69.452 A 24.485 24.485 0 0 0 193.901 69.4 Q 195.301 69.2 196.901 68.5 Q 197.301 68.3 197.701 68.15 A 2.305 2.305 0 0 1 198.351 68.005 A 2.138 2.138 0 0 1 198.501 68 A 1.552 1.552 0 0 1 199.024 68.084 Q 199.428 68.228 199.68 68.618 A 1.681 1.681 0 0 1 199.701 68.65 Q 200.101 69.3 200.401 70 A 1.692 1.692 0 0 1 200.461 70.231 Q 200.57 70.831 200.128 71.23 A 1.617 1.617 0 0 1 199.901 71.4 A 25.061 25.061 0 0 1 197.646 72.703 Q 196.508 73.279 195.447 73.642 A 12.679 12.679 0 0 1 194.201 74 A 22.883 22.883 0 0 1 191.132 74.481 A 30.122 30.122 0 0 1 188.401 74.6 Q 185.401 74.6 182.701 73.1 Q 180.001 71.6 178.251 68.5 A 12.721 12.721 0 0 1 176.952 65.061 Q 176.501 63.087 176.501 60.7 Z M 560.401 74.1 Q 553.401 74.1 548.151 70.8 Q 542.901 67.5 540.001 62.2 Q 537.101 56.9 537.101 50.9 Q 537.101 45 539.201 40.4 Q 541.301 35.8 544.751 32.7 A 24.68 24.68 0 0 1 552.173 28.05 A 23.716 23.716 0 0 1 552.301 28 A 23.339 23.339 0 0 1 557.639 26.589 A 20.425 20.425 0 0 1 560.401 26.4 Q 567.401 26.4 572.651 29.7 Q 577.901 33 580.801 38.3 Q 583.701 43.6 583.701 49.6 A 27.634 27.634 0 0 1 583.129 55.339 A 21.955 21.955 0 0 1 581.551 60.1 A 24.865 24.865 0 0 1 578.169 65.492 A 21.97 21.97 0 0 1 575.951 67.8 A 24.68 24.68 0 0 1 568.529 72.45 A 23.716 23.716 0 0 1 568.401 72.5 A 23.709 23.709 0 0 1 563.61 73.835 A 19.847 19.847 0 0 1 560.401 74.1 Z M 657.901 62.6 L 657.901 39.7 Q 657.901 37.9 657.751 36.35 A 4.423 4.423 0 0 0 657.457 35.109 A 3.561 3.561 0 0 0 656.601 33.85 A 2.631 2.631 0 0 0 655.775 33.339 Q 654.959 33.005 653.66 32.925 A 14.072 14.072 0 0 0 652.801 32.9 A 5.641 5.641 0 0 1 651.791 32.813 A 4.654 4.654 0 0 1 651.151 32.65 A 0.895 0.895 0 0 1 650.638 32.192 Q 650.401 31.744 650.401 30.9 A 2.072 2.072 0 0 1 650.524 30.16 Q 650.749 29.567 651.388 29.284 A 2.768 2.768 0 0 1 652.001 29.1 Q 655.792 28.523 658.123 27.946 A 27.017 27.017 0 0 0 659.051 27.7 Q 661.501 27 662.801 26.5 A 12.268 12.268 0 0 1 663.733 26.181 Q 664.197 26.045 664.615 25.969 A 6.178 6.178 0 0 1 665.101 25.9 Q 665.591 25.839 665.987 25.965 A 1.621 1.621 0 0 1 666.451 26.2 Q 666.956 26.568 666.997 27.611 A 4.825 4.825 0 0 1 667.001 27.8 L 667.001 62.6 A 35.447 35.447 0 0 0 667.141 65.8 A 32.65 32.65 0 0 0 667.151 65.9 A 4.425 4.425 0 0 0 667.437 67.134 A 3.503 3.503 0 0 0 668.351 68.45 Q 669.243 69.257 671.397 69.379 A 14.293 14.293 0 0 0 672.201 69.4 A 9.086 9.086 0 0 1 672.891 69.425 Q 673.217 69.45 673.501 69.5 A 4.8 4.8 0 0 1 673.751 69.55 A 0.677 0.677 0 0 1 674.161 69.852 Q 674.438 70.263 674.501 71.2 A 2.486 2.486 0 0 1 674.205 72.366 A 3.037 3.037 0 0 1 674.101 72.55 A 1.351 1.351 0 0 1 673.656 73.006 Q 673.398 73.164 673.06 73.193 A 1.827 1.827 0 0 1 672.901 73.2 Q 670.001 73 667.551 72.95 Q 665.101 72.9 662.401 72.9 Q 659.701 72.9 657.301 72.95 Q 654.901 73 652.001 73.2 A 1.295 1.295 0 0 1 650.997 72.737 A 1.94 1.94 0 0 1 650.851 72.55 A 2.634 2.634 0 0 1 650.52 71.909 A 2.163 2.163 0 0 1 650.401 71.2 A 6.216 6.216 0 0 1 650.49 70.685 Q 650.683 69.811 651.072 69.6 A 0.55 0.55 0 0 1 651.201 69.55 A 4.087 4.087 0 0 1 651.615 69.471 Q 652.081 69.405 652.713 69.4 A 12.988 12.988 0 0 1 652.801 69.4 A 12.915 12.915 0 0 0 654.07 69.343 Q 655.847 69.166 656.601 68.45 A 3.625 3.625 0 0 0 657.611 66.704 A 4.982 4.982 0 0 0 657.751 65.9 A 35.26 35.26 0 0 0 657.9 62.706 A 38.449 38.449 0 0 0 657.901 62.6 Z M 560.401 70.4 A 13.394 13.394 0 0 0 563.658 70.026 A 9.341 9.341 0 0 0 568.151 67.5 A 14.972 14.972 0 0 0 571.03 63.279 A 20.426 20.426 0 0 0 572.251 59.85 A 38.082 38.082 0 0 0 573.379 52.964 A 45.472 45.472 0 0 0 573.501 49.6 A 37.644 37.644 0 0 0 573.089 43.922 A 30.316 30.316 0 0 0 572.201 39.9 A 17.611 17.611 0 0 0 570.566 36.036 A 13.96 13.96 0 0 0 568.001 32.8 A 9.881 9.881 0 0 0 562.935 30.32 A 14.002 14.002 0 0 0 560.401 30.1 A 13.642 13.642 0 0 0 557.072 30.484 A 9.576 9.576 0 0 0 552.601 32.95 A 14.452 14.452 0 0 0 549.527 37.466 A 19.239 19.239 0 0 0 548.501 40.45 A 37.457 37.457 0 0 0 547.484 46.47 A 47.386 47.386 0 0 0 547.301 50.7 A 38.223 38.223 0 0 0 547.839 57.224 A 32.68 32.68 0 0 0 548.551 60.4 A 17.833 17.833 0 0 0 550.085 64.234 A 13.894 13.894 0 0 0 552.701 67.65 A 9.799 9.799 0 0 0 557.652 70.145 A 14.108 14.108 0 0 0 560.401 70.4 Z M 690.301 45.1 L 706.601 45.1 Q 708.385 45.1 709.645 44.575 A 4.929 4.929 0 0 0 710.451 44.15 A 3.185 3.185 0 0 0 711.717 42.491 Q 711.962 41.798 712.001 40.9 A 13.351 13.351 0 0 0 710.915 35.494 A 12.89 12.89 0 0 0 709.651 33.25 A 7.609 7.609 0 0 0 704.625 30.097 A 11.946 11.946 0 0 0 702.401 29.9 A 10.33 10.33 0 0 0 694.639 33.242 A 13.534 13.534 0 0 0 694.051 33.9 A 14.505 14.505 0 0 0 691.505 38.504 Q 690.508 41.373 690.301 45.1 Z M 150.001 55.8 L 150.001 50.1 A 73.73 73.73 0 0 0 144.945 50.606 Q 140.181 51.263 137.172 52.486 A 14.165 14.165 0 0 0 135.301 53.4 A 8.566 8.566 0 0 0 131.082 59.639 A 13.42 13.42 0 0 0 130.901 61.9 A 10.274 10.274 0 0 0 131.212 64.55 Q 132.12 67.945 135.684 68.563 A 10.062 10.062 0 0 0 137.401 68.7 Q 140.801 68.7 143.651 67 Q 146.501 65.3 148.251 62.35 Q 150.001 59.4 150.001 55.8 Z M 237.301 55.8 L 237.301 50.1 A 73.73 73.73 0 0 0 232.245 50.606 Q 227.481 51.263 224.472 52.486 A 14.165 14.165 0 0 0 222.601 53.4 A 8.566 8.566 0 0 0 218.382 59.639 A 13.42 13.42 0 0 0 218.201 61.9 A 10.274 10.274 0 0 0 218.512 64.55 Q 219.42 67.945 222.984 68.563 A 10.062 10.062 0 0 0 224.701 68.7 Q 228.101 68.7 230.951 67 Q 233.801 65.3 235.551 62.35 Q 237.301 59.4 237.301 55.8 Z M 384.301 55.8 L 384.301 50.1 A 73.73 73.73 0 0 0 379.245 50.606 Q 374.481 51.263 371.472 52.486 A 14.165 14.165 0 0 0 369.601 53.4 A 8.566 8.566 0 0 0 365.382 59.639 A 13.42 13.42 0 0 0 365.201 61.9 A 10.274 10.274 0 0 0 365.512 64.55 Q 366.42 67.945 369.984 68.563 A 10.062 10.062 0 0 0 371.701 68.7 Q 375.101 68.7 377.951 67 Q 380.801 65.3 382.551 62.35 Q 384.301 59.4 384.301 55.8 Z M 659.473 14.416 A 7.398 7.398 0 0 0 661.901 14.8 A 8.701 8.701 0 0 0 662.587 14.773 A 6.63 6.63 0 0 0 666.601 13.1 A 7.023 7.023 0 0 0 666.831 12.885 A 5.252 5.252 0 0 0 668.501 9 A 8.209 8.209 0 0 0 668.432 7.923 A 6.042 6.042 0 0 0 666.901 4.55 A 5.221 5.221 0 0 0 664.881 3.159 A 5.827 5.827 0 0 0 662.801 2.8 Q 659.901 2.8 657.601 4.6 A 9.243 9.243 0 0 0 657.491 4.687 Q 656.774 5.266 656.291 5.897 A 4.519 4.519 0 0 0 655.301 8.7 A 6.957 6.957 0 0 0 655.305 8.942 A 5.65 5.65 0 0 0 657.201 13.05 A 6.412 6.412 0 0 0 659.473 14.416 Z" vector-effect="non-scaling-stroke"/></g></svg>
